<?xml version="1.0" encoding="UTF-8" ?>
<!DOCTYPE svg PUBLIC "-//W3C//DTD SVG 1.1//EN" "http://www.w3.org/Graphics/SVG/1.1/DTD/svg11.dtd">
<svg width="331pt" height="261pt" viewBox="0 0 331 261" version="1.1" xmlns="http://www.w3.org/2000/svg">
<g id="#ffffffff">
<path fill="#ffffff" opacity="1.00" d=" M 107.51 11.24 C 109.71 11.27 111.89 11.48 114.04 11.94 C 114.10 12.75 114.21 14.36 114.27 15.17 C 112.22 16.15 109.97 16.48 107.72 16.60 C 107.63 14.81 107.58 13.03 107.51 11.24 Z" />
<path fill="#ffffff" opacity="1.00" d=" M 215.32 11.07 C 220.76 10.39 225.35 16.34 223.64 21.47 C 222.89 25.62 218.18 28.45 214.15 27.17 C 210.53 25.86 208.21 21.85 208.87 18.05 C 209.07 14.54 212.04 11.84 215.32 11.07 Z" />
<path fill="#ffffff" opacity="1.00" d=" M 248.97 10.82 C 251.11 11.04 253.22 11.41 255.31 11.91 C 254.96 13.02 254.68 14.14 254.46 15.28 C 252.67 15.48 250.89 15.67 249.11 15.86 C 249.06 14.18 249.01 12.50 248.97 10.82 Z" />
<path fill="#ffffff" opacity="1.00" d=" M 249.11 22.12 C 251.31 22.26 253.51 22.51 255.65 23.08 C 255.80 23.85 256.11 25.38 256.26 26.15 C 254.01 27.37 251.46 27.51 248.96 27.47 C 249.00 25.68 249.05 23.90 249.11 22.12 Z" />
</g>
<g id="#2a2d46ff">
<path fill="#2a2d46" opacity="1.00" d=" M 63.35 9.40 C 69.36 1.57 82.30 1.10 89.33 7.80 C 87.50 9.82 85.70 11.84 83.91 13.89 C 81.13 11.63 77.18 9.76 73.76 11.84 C 68.31 14.38 67.81 23.01 72.69 26.36 C 75.19 28.13 78.38 27.67 81.20 27.17 C 81.19 25.81 81.17 24.44 81.16 23.08 C 79.23 23.02 77.29 22.97 75.36 22.90 C 75.39 20.61 75.40 18.33 75.39 16.05 C 79.92 15.97 84.46 16.00 88.99 16.01 C 89.00 21.65 89.03 27.28 88.96 32.92 C 81.80 35.93 72.60 36.94 66.09 31.93 C 59.33 26.75 58.42 16.11 63.35 9.40 Z" />
<path fill="#2a2d46" opacity="1.00" d=" M 212.38 3.55 C 219.29 2.08 227.48 4.54 231.03 11.00 C 234.09 16.75 233.73 24.44 229.61 29.59 C 222.84 38.06 207.62 37.41 201.99 27.98 C 198.69 22.20 198.79 14.27 203.05 9.00 C 205.35 6.10 208.77 4.23 212.38 3.55 M 215.32 11.07 C 212.04 11.84 209.07 14.54 208.87 18.05 C 208.21 21.85 210.53 25.86 214.15 27.17 C 218.18 28.45 222.89 25.62 223.64 21.47 C 225.35 16.34 220.76 10.39 215.32 11.07 Z" />
<path fill="#2a2d46" opacity="1.00" d=" M 99.00 4.01 C 104.50 4.18 110.06 3.53 115.50 4.46 C 119.89 5.25 123.50 9.41 122.87 13.98 C 123.13 17.66 120.18 20.23 117.54 22.23 C 120.02 26.43 122.68 30.53 125.08 34.77 C 121.74 34.84 118.40 34.82 115.05 34.84 C 112.55 30.76 110.70 26.29 107.86 22.41 C 107.42 26.52 107.61 30.66 107.60 34.79 C 104.74 34.82 101.88 34.83 99.02 34.84 C 98.97 24.57 99.01 14.29 99.00 4.01 M 107.51 11.24 C 107.58 13.03 107.63 14.81 107.72 16.60 C 109.97 16.48 112.22 16.15 114.27 15.17 C 114.21 14.36 114.10 12.75 114.04 11.94 C 111.89 11.48 109.71 11.27 107.51 11.24 Z" />
<path fill="#2a2d46" opacity="1.00" d=" M 133.00 4.00 C 140.01 4.00 147.01 3.99 154.01 4.01 C 154.00 6.55 153.99 9.08 153.96 11.62 C 149.75 11.58 145.54 11.59 141.34 11.59 C 141.34 12.55 141.34 14.45 141.34 15.41 C 145.30 15.41 149.26 15.41 153.23 15.38 C 153.29 17.79 153.29 20.20 153.23 22.62 C 149.26 22.59 145.29 22.58 141.33 22.60 C 141.34 24.13 141.35 25.65 141.34 27.18 C 145.83 27.17 150.32 27.17 154.82 27.19 C 154.82 29.73 154.82 32.27 154.82 34.81 C 147.55 34.85 140.29 34.81 133.02 34.84 C 132.98 24.56 133.01 14.28 133.00 4.00 Z" />
<path fill="#2a2d46" opacity="1.00" d=" M 164.00 4.01 C 167.17 4.12 170.43 3.62 173.53 4.35 C 177.18 9.76 180.13 15.63 184.01 20.90 C 183.69 15.27 183.60 9.64 183.70 4.01 C 186.47 4.00 189.23 4.00 191.99 4.00 C 192.00 14.28 192.02 24.56 191.98 34.83 C 189.00 34.82 186.03 34.81 183.05 34.86 C 179.34 29.24 176.04 23.35 172.32 17.74 C 172.29 23.44 172.27 29.15 172.54 34.84 C 169.70 34.83 166.86 34.82 164.02 34.83 C 163.97 24.56 164.01 14.28 164.00 4.01 Z" />
<path fill="#2a2d46" opacity="1.00" d=" M 240.70 4.01 C 246.99 4.43 253.69 2.86 259.67 5.35 C 264.73 7.64 264.88 14.81 261.00 18.30 C 262.73 20.24 265.00 22.24 264.87 25.08 C 265.29 28.99 262.65 32.79 258.87 33.81 C 252.98 35.50 246.76 34.61 240.72 34.82 C 240.65 24.55 240.68 14.28 240.70 4.01 M 248.97 10.82 C 249.01 12.50 249.06 14.18 249.11 15.86 C 250.89 15.67 252.67 15.48 254.46 15.28 C 254.68 14.14 254.96 13.02 255.31 11.91 C 253.22 11.41 251.11 11.04 248.97 10.82 M 249.11 22.12 C 249.05 23.90 249.00 25.68 248.96 27.47 C 251.46 27.51 254.01 27.37 256.26 26.15 C 256.11 25.38 255.80 23.85 255.65 23.08 C 253.51 22.51 251.31 22.26 249.11 22.12 Z" />
<path fill="#2a2d46" opacity="1.00" d=" M 273.17 4.02 C 276.11 4.00 279.05 4.00 281.99 4.00 C 282.01 11.66 281.99 19.33 282.01 27.00 C 285.77 27.01 289.54 26.99 293.31 27.01 C 293.32 29.62 293.30 32.22 293.29 34.82 C 286.59 34.82 279.89 34.84 273.19 34.81 C 273.15 24.55 273.20 14.28 273.17 4.02 Z" />
<path fill="#2a2d46" opacity="1.00" d=" M 300.70 4.01 C 307.75 4.00 314.80 3.97 321.85 4.03 C 321.83 6.55 321.81 9.07 321.79 11.60 C 317.52 11.59 313.26 11.58 309.00 11.61 C 309.00 12.55 309.00 14.45 309.00 15.39 C 312.99 15.42 316.98 15.42 320.97 15.39 C 320.99 17.80 320.99 20.21 320.97 22.62 C 316.98 22.59 312.98 22.58 308.99 22.62 C 309.00 24.13 309.00 25.65 309.00 27.17 C 313.53 27.18 318.06 27.16 322.60 27.21 C 322.59 29.74 322.59 32.26 322.60 34.79 C 315.31 34.86 308.01 34.81 300.72 34.82 C 300.65 24.55 300.68 14.28 300.70 4.01 Z" />
<path fill="#2a2d46" opacity="1.00" d=" M 10.42 50.42 C 18.88 50.39 27.33 50.42 35.79 50.40 C 35.87 96.70 35.80 142.99 35.82 189.28 C 27.35 189.30 18.86 189.44 10.39 189.20 C 10.45 142.94 10.38 96.68 10.42 50.42 Z" />
<path fill="#2a2d46" opacity="1.00" d=" M 68.18 53.21 C 74.14 49.30 82.42 49.59 88.09 53.90 C 109.92 69.71 131.83 85.42 153.61 101.29 C 153.56 112.22 153.62 123.16 153.58 134.09 C 130.93 117.97 108.57 101.45 85.91 85.35 C 85.71 119.99 85.88 154.63 85.82 189.28 C 77.27 189.34 68.73 189.34 60.18 189.28 C 60.19 148.83 60.15 108.38 60.19 67.93 C 60.15 62.08 63.26 56.36 68.18 53.21 Z" />
<path fill="#2a2d46" opacity="1.00" d=" M 214.70 71.98 C 214.51 61.13 223.94 50.92 234.93 51.00 C 248.63 51.01 262.33 50.98 276.03 51.01 C 288.54 51.51 301.68 55.18 310.72 64.27 C 319.41 72.68 323.18 85.10 323.03 96.98 C 323.41 108.55 320.33 120.72 312.43 129.47 C 306.39 136.47 297.73 140.75 288.82 142.81 C 277.00 145.63 264.76 144.63 252.72 144.82 C 252.70 136.34 252.56 127.86 252.80 119.39 C 259.86 119.39 266.93 119.47 273.99 119.37 C 280.06 119.16 286.57 117.44 290.66 112.65 C 295.04 107.57 295.84 100.39 295.14 93.95 C 294.66 88.88 292.34 83.85 288.20 80.76 C 283.61 77.31 277.67 76.35 272.06 76.31 C 262.05 76.31 252.04 76.34 242.04 76.30 C 241.94 113.96 242.04 151.63 241.99 189.30 C 232.90 189.32 223.81 189.36 214.73 189.27 C 214.64 150.18 214.69 111.08 214.70 71.98 Z" />
<path fill="#2a2d46" opacity="1.00" d=" M 55.96 222.97 C 56.06 212.62 65.97 204.32 75.97 204.15 C 80.59 203.76 85.09 205.15 89.17 207.20 C 87.67 209.49 86.11 211.74 84.60 214.03 C 79.23 211.72 72.35 211.48 68.08 216.09 C 62.69 220.83 64.24 230.38 70.56 233.54 C 76.29 237.13 83.86 235.12 88.05 230.12 C 90.49 231.55 92.93 232.99 95.33 234.50 C 90.09 242.05 79.87 245.30 71.14 242.78 C 62.41 240.65 55.17 232.18 55.96 222.97 Z" />
<path fill="#2a2d46" opacity="1.00" d=" M 10.39 204.79 C 13.35 204.68 16.31 204.67 19.28 204.71 C 19.42 211.79 19.20 218.87 19.36 225.94 C 19.44 231.71 25.44 236.20 31.00 235.29 C 35.71 234.85 40.00 230.84 40.10 225.99 C 40.31 218.90 40.10 211.81 40.18 204.72 C 43.11 204.69 46.05 204.68 48.99 204.69 C 48.89 212.45 49.24 220.22 48.83 227.97 C 47.67 238.16 36.77 245.00 27.00 243.45 C 18.59 242.56 10.90 235.58 10.48 226.91 C 10.26 219.54 10.50 212.16 10.39 204.79 Z" />
<path fill="#2a2d46" opacity="1.00" d=" M 123.35 204.76 C 131.67 217.28 139.40 230.21 147.40 242.95 C 143.98 243.02 140.56 243.01 137.14 242.99 C 132.60 235.69 127.95 228.47 123.50 221.11 C 118.78 228.32 114.36 235.71 109.74 242.98 C 106.31 243.01 102.88 243.02 99.46 242.96 C 107.32 230.16 115.35 217.47 123.35 204.76 Z" />
<path fill="#2a2d46" opacity="1.00" d=" M 77.01 219.70 C 83.34 219.67 89.66 219.67 95.99 219.70 C 96.00 222.46 96.00 225.23 96.00 227.99 C 89.67 228.01 83.33 228.01 77.00 227.99 C 77.00 225.23 77.00 222.46 77.01 219.70 Z" />
</g>
<g id="#e84e0fff">
<path fill="#e84e0f" opacity="1.00" d=" M 17.30 12.31 C 21.92 7.05 28.81 4.48 35.69 4.08 C 35.83 14.30 35.73 24.52 35.74 34.74 C 27.36 34.78 18.98 34.73 10.60 34.77 C 9.85 26.81 11.45 18.15 17.30 12.31 Z" />
<path fill="#e84e0f" opacity="1.00" d=" M 163.55 50.55 C 171.96 50.51 180.37 50.39 188.78 50.62 C 188.74 90.09 188.73 129.55 188.78 169.02 C 189.08 173.91 188.35 179.17 184.90 182.92 C 179.56 189.77 168.83 191.32 161.76 186.27 C 139.77 170.47 117.87 154.53 95.87 138.75 C 95.66 127.81 95.73 116.86 95.82 105.93 C 118.47 122.11 140.91 138.58 163.54 154.78 C 163.48 120.04 163.46 85.29 163.55 50.55 Z" />
<path fill="#e84e0f" opacity="1.00" d=" M 123.30 237.41 C 127.15 242.62 130.31 248.30 133.79 253.76 C 126.89 253.74 120.00 253.78 113.11 253.74 C 116.45 248.26 119.88 242.84 123.30 237.41 Z" />
</g>
</svg>
